<?xml version="1.0" encoding="utf-8"?>
<!-- Generator: Adobe Illustrator 16.0.0, SVG Export Plug-In . SVG Version: 6.00 Build 0)  -->
<!DOCTYPE svg PUBLIC "-//W3C//DTD SVG 1.1//EN" "http://www.w3.org/Graphics/SVG/1.1/DTD/svg11.dtd">
<svg version="1.1" id="Capa_1" xmlns="http://www.w3.org/2000/svg" xmlns:xlink="http://www.w3.org/1999/xlink" x="0px" y="0px"
	 width="580.246px" height="351.494px" viewBox="0 0 580.246 351.494" enable-background="new 0 0 580.246 351.494"
	 xml:space="preserve">
<polygon fill="#A01127" points="580.246,224.412 0,351.494 0,0 546.354,0 "/>
<polygon fill="#BE0411" points="573.15,218.827 0,342.748 0,0 539.674,0 "/>
<g>
	<path fill="#FFFFFF" stroke="#FFFFFF" stroke-width="2.7119" stroke-miterlimit="10" d="M345.898,178.667
		c-11.38-25.749-36.551-42.158-62.216-42.158c-36.878,0-66.885,30.003-66.885,66.877c0,36.886,30.006,66.888,66.885,66.888
		c22.217,0,47.271-13.104,59.093-34.736l-11.436,0.064c-10.736,15.847-28.552,25.304-47.658,25.304
		c-31.714,0-57.514-25.796-57.514-57.521c0-31.712,25.8-57.513,57.514-57.513c22.063,0,42.46,12.87,51.957,32.812L345.898,178.667z"
		/>
	<g>
		<path fill-rule="evenodd" clip-rule="evenodd" d="M380.68,60.64c-2.529-18.457-10.038-32.195-22.31-40.856
			c-20.717-14.622-47.267-9.313-48.389-9.083c-0.114,0.031-0.237,0.061-0.351,0.089c-7.778,2.372-22.682,3.642-30.874,4.19
			c-7.778,0.514-28.903-3.396-36.382-4.946c-0.095-0.018-0.197-0.036-0.294-0.051c-22.219-2.88-40.087,0.801-53.104,10.931
			c-16.493,12.833-18.88,31.269-18.973,32.043c0,0.053-0.01,0.117-0.017,0.172c-1.467,19.16,3.364,34.688,14.371,46.141
			c12.195,12.701,29.326,17.646,41.812,19.564v45.654c0,0.896,0.309,1.764,0.854,2.465c10.015,12.88,32.313,13.555,35.023,13.595
			c20.929,3.38,59.736-23.716,64.125-26.843c1.051-0.744,1.68-1.943,1.685-3.225l0.304-28.973
			c17.154-2.141,30.436-8.442,39.557-18.813C383.453,84.808,380.803,61.614,380.68,60.64z M361.645,97.453
			c-8.143,9.21-20.42,14.674-36.543,16.317c-0.394-0.088-0.797-0.146-1.207-0.114l-9.362,0.668
			c-2.164,0.155-3.806,1.998-3.728,4.159c0.078,2.16,1.863,3.868,4.033,3.856c1.802-0.008,3.549-0.065,5.277-0.149l-0.262,26.149
			c-12.492,8.62-42.686,26.883-56.818,24.246c-0.241-0.044-0.484-0.066-0.734-0.066c-0.196,0-19.549-0.157-28.104-9.497v-43.27
			c4.675,0.355,7.758,0.266,8.177,0.249c2.12-0.081,3.818-1.8,3.863-3.924c0.051-2.117-1.563-3.915-3.678-4.087l-12.036-1.006
			c-0.445-0.042-0.881,0.019-1.306,0.129c-11.412-1.548-27.96-5.798-39.104-17.433c-9.306-9.715-13.391-23.123-12.123-39.85
			c0.171-1.197,2.651-16.327,16.019-26.664c11.236-8.684,27.016-11.792,46.914-9.232c2.591,0.527,28.229,5.726,38.369,5.051
			c10.323-0.688,24.275-2.018,32.429-4.446c1.731-0.319,24.836-4.363,42.064,7.836c10.358,7.337,16.728,19.208,18.936,35.3
			C372.739,61.818,375.008,82.33,361.645,97.453z"/>
		<path fill-rule="evenodd" clip-rule="evenodd" fill="#FFFFFF" d="M354.096,26.173c-17.232-12.197-40.34-8.153-42.056-7.829
			c-8.161,2.424-22.11,3.753-32.438,4.439c-10.146,0.686-35.783-4.525-38.368-5.049c-19.888-2.567-35.684,0.542-46.92,9.23
			c-13.37,10.338-15.839,25.471-16.021,26.666c-1.264,16.721,2.817,30.129,12.137,39.851c11.147,11.626,27.678,15.882,39.094,17.427
			c0.423-0.108,0.866-0.167,1.304-0.13l12.048,1.007c2.113,0.176,3.724,1.968,3.682,4.089c-0.063,2.126-1.747,3.845-3.873,3.923
			c-0.421,0.014-3.502,0.103-8.168-0.246v43.271c8.537,9.337,27.901,9.492,28.095,9.492c0.244,0,0.489,0.026,0.742,0.066
			c14.126,2.635,44.313-15.626,56.812-24.245l0.272-26.147c-1.745,0.084-3.5,0.144-5.292,0.152
			c-2.163,0.014-3.952-1.697-4.033-3.861c-0.08-2.166,1.558-4.001,3.724-4.159l9.366-0.663c0.412-0.033,0.809,0.023,1.201,0.111
			c16.132-1.644,28.406-7.109,36.552-16.314c13.36-15.126,11.099-35.642,11.07-35.784C370.823,45.387,364.453,33.513,354.096,26.173
			z"/>
	</g>
	<path d="M369.98,203.09c0,0-17.398,21.742-69.579,6.357c0,0-1.332,13.712-13.716,16.719
		C286.686,226.167,342.221,253.266,369.98,203.09z"/>
	<path d="M297.727,191.381h29.101c0,0,1.008-12.715-8.363-15.386c0,0-3.007,5.024-5.68,4.347c0,0-2.68-2.341-3.35-4.676
		C309.435,175.666,296.725,175.666,297.727,191.381z"/>
	<path d="M204.403,203.09c0,0,17.396,21.742,69.579,6.357c0,0,1.334,13.712,13.714,16.719
		C287.696,226.167,232.171,253.266,204.403,203.09z"/>
</g>
</svg>
