<?xml version="1.0" encoding="utf-8"?>
<!-- Generator: Adobe Illustrator 16.0.0, SVG Export Plug-In . SVG Version: 6.00 Build 0)  -->
<!DOCTYPE svg PUBLIC "-//W3C//DTD SVG 1.1//EN" "http://www.w3.org/Graphics/SVG/1.1/DTD/svg11.dtd">
<svg version="1.1" id="Capa_1" xmlns="http://www.w3.org/2000/svg" xmlns:xlink="http://www.w3.org/1999/xlink" x="0px" y="0px"
	 width="142.399px" height="174.336px" viewBox="0 0 142.399 174.336" enable-background="new 0 0 142.399 174.336"
	 xml:space="preserve">
<g>
	<g id="XMLID_2_">
		<g>
			<path fill="#CB2128" d="M115.56,111.446l-6.55,0.01c-6.05-12.72-19.07-20.93-33.15-20.93c-20.24,0-36.7,16.46-36.7,36.7
				c0,20.24,16.46,36.7,36.7,36.7c12.19,0,23.561-6.03,30.41-16.149l7.3-0.04c-7.55,13.81-23.529,22.17-37.71,22.17
				c-23.53,0-42.68-19.15-42.68-42.681c0-23.53,19.15-42.68,42.68-42.68C92.24,84.546,108.3,95.016,115.56,111.446z"/>
		</g>
		<g>
		</g>
	</g>
	<g>
		<path fill-rule="evenodd" clip-rule="evenodd" d="M137.755,36.135c-1.613-11.777-6.404-20.543-14.234-26.07
			c-13.22-9.331-30.162-5.943-30.878-5.797c-0.073,0.02-0.151,0.039-0.224,0.057c-4.964,1.513-14.474,2.324-19.701,2.673
			c-4.963,0.328-18.443-2.167-23.216-3.156c-0.061-0.011-0.125-0.022-0.188-0.032c-14.178-1.838-25.58,0.511-33.886,6.976
			C4.904,18.974,3.38,30.738,3.321,31.232c0,0.034-0.006,0.075-0.011,0.11c-0.937,12.226,2.147,22.134,9.17,29.443
			c7.782,8.104,18.713,11.26,26.681,12.484v29.132c0,0.571,0.196,1.125,0.545,1.573c6.39,8.219,20.619,8.649,22.349,8.675
			c13.354,2.157,38.118-15.133,40.919-17.128c0.67-0.475,1.072-1.24,1.075-2.058l0.194-18.488
			c10.945-1.366,19.421-5.387,25.24-12.005C139.526,51.557,137.835,36.757,137.755,36.135z M125.609,59.625
			c-5.196,5.877-13.03,9.364-23.319,10.413c-0.25-0.057-0.508-0.094-0.77-0.073l-5.974,0.426c-1.381,0.099-2.429,1.275-2.379,2.653
			s1.188,2.469,2.573,2.461c1.15-0.005,2.265-0.042,3.367-0.095l-0.167,16.686c-7.972,5.5-27.238,17.154-36.256,15.471
			c-0.154-0.028-0.31-0.042-0.469-0.042c-0.125,0-12.474-0.101-17.933-6.06V73.855c2.984,0.227,4.951,0.169,5.218,0.158
			c1.352-0.051,2.437-1.148,2.465-2.504c0.032-1.351-0.998-2.498-2.348-2.608l-7.68-0.642c-0.284-0.027-0.562,0.012-0.833,0.082
			c-7.283-0.988-17.842-3.7-24.954-11.124c-5.938-6.2-8.544-14.755-7.736-25.429c0.11-0.764,1.692-10.418,10.223-17.014
			c7.169-5.542,17.239-7.525,29.936-5.891c1.654,0.336,18.014,3.654,24.484,3.223c6.588-0.438,15.491-1.288,20.694-2.837
			c1.104-0.203,15.848-2.784,26.842,5c6.609,4.682,10.674,12.257,12.083,22.525C132.688,36.887,134.137,49.976,125.609,59.625z"/>
		<path fill-rule="evenodd" clip-rule="evenodd" fill="#FFFFFF" d="M120.792,14.142c-10.996-7.784-25.74-5.203-26.836-4.996
			c-5.207,1.547-14.109,2.395-20.699,2.833c-6.474,0.437-22.833-2.888-24.483-3.222c-12.69-1.639-22.771,0.346-29.94,5.89
			C10.303,21.244,8.727,30.9,8.611,31.663c-0.806,10.669,1.798,19.226,7.745,25.429c7.113,7.419,17.662,10.135,24.946,11.121
			c0.27-0.069,0.552-0.106,0.832-0.083l7.688,0.643c1.348,0.113,2.376,1.256,2.349,2.609c-0.04,1.357-1.115,2.454-2.471,2.503
			c-0.269,0.009-2.235,0.066-5.212-0.157v27.611c5.448,5.958,17.804,6.057,17.928,6.057c0.155,0,0.312,0.017,0.473,0.042
			c9.015,1.682,28.276-9.971,36.253-15.471l0.174-16.685c-1.113,0.054-2.233,0.092-3.377,0.097
			c-1.381,0.008-2.521-1.083-2.573-2.464c-0.052-1.382,0.994-2.554,2.376-2.654l5.977-0.422c0.262-0.021,0.516,0.015,0.766,0.071
			c10.295-1.049,18.127-4.536,23.324-10.41c8.525-9.652,7.082-22.744,7.064-22.834C131.466,26.402,127.401,18.825,120.792,14.142z"
			/>
	</g>
	<path d="M130.929,127.033c0,0-11.102,13.875-44.398,4.057c0,0-0.851,8.75-8.752,10.67
		C77.778,141.76,113.215,159.051,130.929,127.033z"/>
	<path d="M84.823,119.563h18.569c0,0,0.644-8.113-5.337-9.818c0,0-1.918,3.206-3.625,2.773c0,0-1.709-1.494-2.137-2.984
		C92.294,109.534,84.184,109.534,84.823,119.563z"/>
	<path d="M25.272,127.033c0,0,11.1,13.875,44.399,4.057c0,0,0.852,8.75,8.751,10.67C78.422,141.76,42.991,159.051,25.272,127.033z"
		/>
</g>
<g>
	<g id="XMLID_1_">
		<g>
			<path fill="#CB2128" d="M-47.042,32.927c0.08,0.62,1.77,15.42-8.27,26.84c-5.82,6.62-14.29,10.64-25.24,12l-0.19,18.49
				c-0.01,0.62-0.23,1.2-0.63,1.65c-1.36-1.18-2.8-2.27-4.28-3.26l0.17-16.57c-1.11,0.05-2.23,0.09-3.37,0.1
				c-1.39,0.01-2.53-1.09-2.58-2.47c-0.03-0.87,0.38-1.66,1.03-2.15c0.34-0.21,0.73-0.34,1.15-0.37l5.98-0.43
				c0.26-0.02,0.52,0.02,0.77,0.08c6.52-0.67,12.06-2.31,16.56-4.94c0.38-0.22,0.76-0.44,1.12-0.67c2.22-1.39,4.16-3.04,5.83-4.93
				c8.53-9.65,7.09-22.75,7.07-22.84c-1.41-10.26-5.47-17.84-12.08-22.52c-11-7.78-25.74-5.2-26.84-5c-5.2,1.55-14.11,2.4-20.7,2.84
				c-6.47,0.43-22.83-2.89-24.48-3.23c-11.57-1.49-20.97,0.03-27.97,4.51c-0.33,0.2-0.65,0.42-0.96,0.64
				c-0.41,0.28-0.81,0.57-1.2,0.87c-8.53,6.6-10.12,16.25-10.23,17.02c-0.81,10.67,1.8,19.23,7.74,25.43
				c7.11,7.42,17.67,10.13,24.95,11.12c0.27-0.07,0.55-0.11,0.84-0.08l7.68,0.64c1.35,0.11,2.38,1.26,2.34,2.61
				c-0.01,0.83-0.43,1.56-1.05,2.01c-0.01,0.01-0.03,0.02-0.05,0.03c-0.35,0.2-0.74,0.32-1.16,0.33c-0.27,0.01-2.24,0.07-5.22-0.15
				v0.13c-0.06,0-0.13,0-0.2-0.01v24.69c-1.61,1.77-3.07,3.67-4.36,5.69c-0.08-0.08-0.15-0.17-0.22-0.26
				c-0.35-0.44-0.54-1-0.54-1.57v-29.13c-7.97-1.23-18.9-4.38-26.68-12.49c-7.03-7.31-10.11-17.21-9.17-29.44
				c0-0.04,0.01-0.08,0.01-0.11c0.06-0.49,1.58-12.26,12.1-20.45c8.31-6.46,19.71-8.81,33.89-6.97c0.06,0.01,0.13,0.02,0.19,0.03
				c4.77,0.99,18.25,3.48,23.21,3.16c5.23-0.35,14.74-1.16,19.71-2.68c0.07-0.02,0.15-0.03,0.22-0.05
				c0.72-0.15,17.66-3.54,30.88,5.79C-53.442,12.387-48.652,21.157-47.042,32.927z"/>
			<path fill="#CB2128" d="M-51.922,33.457c0.02,0.09,1.46,13.19-7.07,22.84c-1.67,1.89-3.61,3.54-5.83,4.93
				c2.13-1.37,4.02-2.97,5.64-4.81c8.52-9.65,7.08-22.74,7.06-22.83c-1.41-10.26-5.47-17.84-12.08-22.52
				c-10.99-7.79-25.74-5.21-26.84-5c-5.2,1.55-14.11,2.4-20.69,2.83c-6.47,0.44-22.83-2.88-24.49-3.22
				c-11.47-1.47-20.79,0-27.77,4.38c7-4.48,16.4-6,27.97-4.51c1.65,0.34,18.01,3.66,24.48,3.23c6.59-0.44,15.5-1.29,20.7-2.84
				c1.1-0.2,15.84-2.78,26.84,5C-57.392,15.617-53.332,23.197-51.922,33.457z"/>
			<path fill="#CB2128" d="M-52.122,33.587c0.02,0.09,1.46,13.18-7.06,22.83c-1.62,1.84-3.51,3.44-5.64,4.81
				c-0.36,0.23-0.74,0.45-1.12,0.67c-4.46,2.54-9.94,4.15-16.37,4.81c-0.25-0.06-0.5-0.09-0.77-0.07l-5.97,0.42
				c-0.51,0.04-0.97,0.22-1.35,0.5c-0.77,0.46-1.26,1.32-1.23,2.28c0.05,1.38,1.19,2.47,2.58,2.46c1.15,0,2.26-0.04,3.37-0.09
				l-0.17,16.31c-6.94-4.6-14.96-7.17-23.08-7.17c-12.4,0-23.58,5.31-31.38,13.77v-24.46c2.87,0.22,4.76,0.16,5.02,0.15
				c0.5-0.02,0.97-0.18,1.36-0.46c0.02-0.01,0.04-0.02,0.05-0.03c0.74-0.43,1.23-1.23,1.26-2.14c0.02-1.35-1-2.5-2.35-2.61
				l-7.69-0.64c-0.28-0.03-0.56,0.01-0.83,0.08c-7.29-0.99-17.83-3.7-24.95-11.12c-5.94-6.2-8.55-14.76-7.74-25.43
				c0.11-0.76,1.69-10.42,10.22-17.02c0.33-0.26,0.67-0.5,1.01-0.74c0.31-0.22,0.63-0.44,0.96-0.64c6.98-4.38,16.3-5.85,27.77-4.38
				c1.66,0.34,18.02,3.66,24.49,3.22c6.58-0.43,15.49-1.28,20.69-2.83c1.1-0.21,15.85-2.79,26.84,5
				C-57.592,15.747-53.532,23.327-52.122,33.587z"/>
			<path fill="#CB2128" d="M-69.232,108.247l-6.55,0.01c-2.45-5.15-6.05-9.57-10.39-13c2.21-1.44,3.76-2.52,4.35-2.94
				c0.17-0.12,0.32-0.26,0.45-0.41C-76.302,96.247-72.092,101.787-69.232,108.247z"/>
			<path fill="#CB2128" d="M-78.522,144.577l7.3-0.04c-7.55,13.8-23.54,22.159-37.71,22.159c-19.55,0-36.06-13.199-41.1-31.159
				c2.67,2.22,5.48,3.85,8.34,5.02c6.06,11.95,18.47,20.16,32.76,20.16C-96.742,160.717-85.372,154.687-78.522,144.577z"/>
			<path fill="#CB2128" d="M-98.262,127.887c33.29,9.82,44.39-4.06,44.39-4.06c-6.73,12.18-16.04,17.22-24.98,18.8
				c-13.24,2.33-25.68-2.94-27.84-3.92c0.21-0.101,0.32-0.15,0.32-0.15c-0.11-0.03-0.21-0.05-0.32-0.09
				C-99.092,136.396-98.262,127.887-98.262,127.887z"/>
			<path fill="#CB2128" d="M-86.742,106.537c5.98,1.71,5.34,9.82,5.34,9.82h-18.57c-0.64-10.03,7.47-10.03,7.47-10.03
				c0.43,1.49,2.14,2.99,2.14,2.99C-88.662,109.747-86.742,106.537-86.742,106.537z"/>
			<path fill="#CB2128" d="M-81.372,91.907c-0.13,0.15-0.28,0.29-0.45,0.41c-0.59,0.42-2.14,1.5-4.35,2.94
				c-1.47-1.15-3.02-2.2-4.64-3.11v-0.01c0.01-0.01,0.03-0.02,0.05-0.03c0.33-0.2,0.65-0.4,0.96-0.61c1.49-0.95,2.83-1.83,3.95-2.61
				c0.07-0.04,0.13-0.08,0.2-0.13v-0.11C-84.172,89.637-82.732,90.727-81.372,91.907z"/>
			<path fill="#CB2128" d="M-85.482,72.077l-0.17,16.57c-0.07-0.05-0.14-0.09-0.2-0.13l0.17-16.31c-1.11,0.05-2.22,0.09-3.37,0.09
				c-1.39,0.01-2.53-1.08-2.58-2.46c-0.03-0.96,0.46-1.82,1.23-2.28c-0.65,0.49-1.06,1.28-1.03,2.15c0.05,1.38,1.19,2.48,2.58,2.47
				C-87.712,72.167-86.592,72.127-85.482,72.077z"/>
			<path fill="#CB2128" d="M-85.652,88.646v0.11c-0.07,0.05-0.13,0.09-0.2,0.13v-0.37C-85.792,88.557-85.722,88.597-85.652,88.646z"
				/>
			<path fill="#CB2128" d="M-85.852,88.887c-1.12,0.78-2.46,1.66-3.95,2.61c-0.31,0.2-0.63,0.41-0.96,0.61
				c-0.02,0.01-0.04,0.02-0.05,0.03c-5.44-3.1-11.67-4.82-18.12-4.82c-11.35,0-21.51,5.17-28.24,13.29
				c-1.18-0.68-2.25-1.5-3.14-2.47v-3.02c7.8-8.46,18.98-13.77,31.38-13.77c8.12,0,16.14,2.57,23.08,7.17V88.887z"/>
			<path fill="#CB2128" d="M-90.812,92.146c1.62,0.91,3.17,1.96,4.64,3.11c-8.33,5.44-26.01,15.89-36.57,14.19
				c-1.37-0.02-10.59-0.3-17.54-4.5c0.89-1.47,1.89-2.86,2.97-4.18c6.02,3.48,14.63,3.55,14.73,3.55c0.16,0,0.32,0.02,0.47,0.05
				c7.44,1.39,21.86-6.31,31.15-12.13C-90.912,92.207-90.862,92.177-90.812,92.146z"/>
			<path fill="#CB2128" d="M-90.762,92.107c0.33-0.2,0.65-0.41,0.96-0.61C-90.112,91.707-90.432,91.907-90.762,92.107z"/>
			<path fill="#CB2128" d="M-90.812,92.137c-0.05,0.03-0.1,0.06-0.15,0.1c-9.3,5.8-23.56,13.38-30.94,12
				c-0.17-0.03-0.32-0.05-0.48-0.05c-0.1,0-8.77-0.06-14.79-3.58c6.73-8.12,16.89-13.29,28.24-13.29
				C-102.482,87.317-96.252,89.037-90.812,92.137z"/>
			<path fill="#CB2128" d="M-106.692,138.467c0.11,0.04,0.21,0.06,0.32,0.09c0,0-0.11,0.05-0.32,0.15
				c-0.22-0.09-0.33-0.15-0.33-0.15C-106.912,138.526-106.802,138.497-106.692,138.467z"/>
			<path fill="#CB2128" d="M-106.692,138.467c-0.11,0.03-0.22,0.06-0.33,0.09c0,0,0.11,0.061,0.33,0.15
				c-2.51,1.14-19.39,8.29-35,1.85c-1.55-3.06-2.69-6.37-3.33-9.84c6.92,1.229,16.65,1.08,29.9-2.83
				C-115.122,127.887-114.292,136.396-106.692,138.467z"/>
			<path fill="#CB2128" d="M-135.092,70.677c0.42-0.01,0.81-0.13,1.16-0.33c-0.39,0.28-0.86,0.44-1.36,0.46
				c-0.26,0.01-2.15,0.07-5.02-0.15v-0.13C-137.332,70.747-135.362,70.687-135.092,70.677z"/>
			<path fill="#CB2128" d="M-137.172,100.607c-0.05,0.05-0.09,0.1-0.14,0.16c-1.2-0.69-2.29-1.52-3.2-2.51v-2.92
				c0.06-0.07,0.13-0.14,0.2-0.22v3.02C-139.422,99.107-138.352,99.927-137.172,100.607z"/>
			<path fill="#CB2128" d="M-137.312,100.767c-1.08,1.32-2.08,2.71-2.97,4.18c-1.72-1.04-3.31-2.33-4.59-3.92
				c1.29-2.02,2.75-3.92,4.36-5.69v2.92C-139.602,99.247-138.512,100.077-137.312,100.767z"/>
			<path fill="#CB2128" d="M-144.872,101.027c1.28,1.59,2.87,2.88,4.59,3.92c-3.4,5.56-5.35,12.09-5.35,19.07
				c0,2.29,0.21,4.53,0.61,6.7c-2.44-0.43-4.53-1.04-6.3-1.72c-0.19-1.63-0.29-3.301-0.29-4.98
				C-151.612,115.557-149.132,107.667-144.872,101.027z"/>
			<path fill="#CB2128" d="M-145.022,130.717c0.64,3.47,1.78,6.78,3.33,9.84c-2.86-1.17-5.67-2.8-8.34-5.02
				c-0.59-2.12-1.03-4.301-1.29-6.54C-149.552,129.677-147.462,130.287-145.022,130.717z"/>
			<path fill="#CB2128" d="M-151.322,128.997c0.26,2.239,0.7,4.42,1.29,6.54c-3.46-2.841-6.7-6.66-9.49-11.71
				C-159.522,123.827-157.152,126.787-151.322,128.997z"/>
		</g>
		<g>
		</g>
	</g>
</g>
</svg>
