<?xml version="1.0" encoding="utf-8"?>
<!-- Generator: Adobe Illustrator 16.0.0, SVG Export Plug-In . SVG Version: 6.00 Build 0)  -->
<!DOCTYPE svg PUBLIC "-//W3C//DTD SVG 1.1//EN" "http://www.w3.org/Graphics/SVG/1.1/DTD/svg11.dtd">
<svg version="1.1" id="Capa_1" xmlns="http://www.w3.org/2000/svg" xmlns:xlink="http://www.w3.org/1999/xlink" x="0px" y="0px"
	 width="142.398px" height="174.336px" viewBox="0 0 142.398 174.336" enable-background="new 0 0 142.398 174.336"
	 xml:space="preserve">
<g>
	<path fill="#0A0000" d="M137.759,36.138c0.08,0.62,1.771,15.42-8.278,26.83c-5.82,6.62-14.29,10.64-25.24,12.01l-0.19,18.48
		c0,0.61-0.229,1.19-0.63,1.649c-1.358-1.18-2.8-2.271-4.278-3.26l0.18-16.571c-1.12,0.06-2.24,0.1-3.38,0.1
		c-1.38,0.01-2.521-1.08-2.57-2.46c-0.04-0.88,0.37-1.67,1.03-2.16c0.34-0.21,0.729-0.34,1.148-0.37l5.972-0.42
		c0.26-0.02,0.52,0.01,0.77,0.07c7.142-0.73,13.09-2.63,17.8-5.68c0.392-0.25,0.762-0.5,1.131-0.77
		c1.711-1.19,3.239-2.56,4.591-4.09c8.52-9.65,7.08-22.74,7.06-22.83c-1.399-10.27-5.47-17.84-12.08-22.53
		c-10.989-7.78-25.739-5.2-26.83-4.99c-5.21,1.54-14.108,2.39-20.699,2.83c-6.479,0.44-22.84-2.89-24.49-3.22
		c-11.57-1.5-20.97,0.03-27.97,4.51c-0.33,0.2-0.65,0.42-0.961,0.64c-0.409,0.271-0.81,0.57-1.199,0.87
		c-8.53,6.59-10.12,16.25-10.23,17.01c-0.8,10.67,1.8,19.23,7.74,25.43c7.11,7.42,17.67,10.14,24.95,11.12
		c0.279-0.07,0.55-0.11,0.84-0.08l7.68,0.64c1.351,0.11,2.38,1.26,2.351,2.61c-0.021,0.85-0.45,1.59-1.101,2.05
		c-0.35,0.2-0.75,0.32-1.17,0.33c-0.27,0.01-2.229,0.06-5.21-0.16v0.14c-0.07,0-0.14,0-0.21-0.01v24.7
		c-1.61,1.771-3.07,3.67-4.36,5.682c-0.069-0.08-0.14-0.17-0.21-0.262c-0.35-0.449-0.55-1.01-0.55-1.578v-29.13
		c-7.97-1.22-18.899-4.38-26.68-12.48c-7.021-7.31-10.11-17.22-9.17-29.45c0.01-0.03,0.01-0.07,0.01-0.11
		c0.06-0.49,1.58-12.25,12.11-20.44c8.3-6.47,19.71-8.82,33.88-6.98c0.069,0.01,0.13,0.02,0.189,0.03
		c4.78,0.99,18.261,3.49,23.221,3.16c5.229-0.35,14.739-1.16,19.699-2.67c0.07-0.02,0.15-0.04,0.222-0.06
		c0.72-0.15,17.659-3.53,30.88,5.8C131.35,15.588,136.14,24.358,137.759,36.138z"/>
	<path fill="#05000F" d="M132.869,36.668c0.021,0.09,1.46,13.18-7.06,22.83c-1.352,1.53-2.88,2.9-4.592,4.09
		c1.62-1.17,3.092-2.49,4.392-3.96c8.53-9.65,7.08-22.74,7.07-22.83c-1.41-10.27-5.48-17.85-12.092-22.53
		c-10.988-7.78-25.729-5.2-26.84-5c-5.2,1.55-14.1,2.4-20.688,2.84c-6.471,0.43-22.831-2.89-24.49-3.23
		c-11.46-1.47-20.79,0-27.771,4.39c7-4.48,16.4-6.01,27.971-4.51c1.649,0.33,18.01,3.66,24.489,3.22
		c6.592-0.44,15.49-1.29,20.7-2.83c1.09-0.21,15.84-2.79,26.83,4.99C127.4,18.828,131.469,26.398,132.869,36.668z"/>
	<path fill="#FFFFFF" d="M132.68,36.798c0.01,0.09,1.46,13.18-7.07,22.83c-1.3,1.47-2.771,2.79-4.391,3.96
		c-0.369,0.27-0.739,0.52-1.131,0.77c-4.68,2.98-10.56,4.83-17.6,5.55c-0.25-0.05-0.51-0.09-0.771-0.07l-5.979,0.42
		c-0.5,0.04-0.96,0.22-1.34,0.5c-0.771,0.47-1.26,1.33-1.23,2.29c0.051,1.37,1.19,2.47,2.57,2.46c1.15-0.01,2.27-0.05,3.37-0.1
		l-0.17,16.31c-6.932-4.6-14.96-7.17-23.08-7.17c-12.39,0-23.57,5.312-31.37,13.78v-24.46c2.87,0.21,4.75,0.16,5.01,0.15
		c0.51-0.02,0.98-0.19,1.37-0.46c0.76-0.43,1.271-1.25,1.3-2.18c0.03-1.35-1-2.49-2.35-2.61l-7.69-0.64
		c-0.279-0.02-0.56,0.02-0.83,0.08c-7.279-0.98-17.829-3.7-24.939-11.12c-5.95-6.2-8.55-14.76-7.75-25.42
		c0.12-0.77,1.689-10.42,10.22-17.02c0.33-0.26,0.67-0.5,1.01-0.74c0.311-0.22,0.631-0.44,0.96-0.64
		c6.98-4.39,16.311-5.86,27.771-4.39c1.66,0.34,18.02,3.66,24.49,3.23c6.59-0.44,15.488-1.29,20.688-2.84
		c1.11-0.2,15.852-2.78,26.84,5C127.199,18.948,131.27,26.528,132.68,36.798z"/>
	<path fill="#FFFFFF" d="M115.56,111.447l-6.552,0.011c-2.448-5.149-6.039-9.56-10.39-12.989c2.21-1.439,3.76-2.531,4.351-2.951
		c0.171-0.119,0.329-0.26,0.449-0.408C108.49,99.447,112.699,104.979,115.56,111.447z"/>
	<path fill="#FFFFFF" d="M106.27,147.777l7.3-0.039c-7.55,13.81-23.53,22.17-37.71,22.17c-19.54,0-36.061-13.211-41.101-31.16
		c2.671,2.221,5.48,3.84,8.341,5.02c6.06,11.951,18.47,20.16,32.76,20.16C88.049,163.928,99.419,157.898,106.27,147.777z"/>
	<path fill="#0A0000" d="M86.53,131.088c33.3,9.82,44.4-4.05,44.4-4.05c-6.74,12.188-16.052,17.229-24.99,18.79
		c-13.26,2.33-25.71-2.95-27.84-3.92c0.21-0.102,0.318-0.15,0.318-0.15c-0.108-0.029-0.21-0.05-0.318-0.09
		C85.699,139.598,86.53,131.088,86.53,131.088z"/>
	<path fill="#0A0000" d="M98.06,109.748c5.979,1.699,5.33,9.811,5.33,9.811H84.82c-0.64-10.021,7.47-10.021,7.47-10.021
		c0.431,1.489,2.142,2.979,2.142,2.979C96.14,112.947,98.06,109.748,98.06,109.748z"/>
	<path fill="#05000F" d="M103.419,95.107c-0.12,0.149-0.278,0.291-0.449,0.41c-0.591,0.42-2.141,1.51-4.351,2.949
		c-1.46-1.16-3.01-2.199-4.63-3.119c1.9-1.189,3.58-2.301,4.95-3.25c0.068-0.041,0.13-0.08,0.2-0.131v-0.119
		C100.619,92.838,102.06,93.928,103.419,95.107z"/>
	<path fill="#05000F" d="M99.32,75.278l-0.18,16.57c-0.07-0.05-0.132-0.09-0.2-0.129l0.17-16.311c-1.102,0.05-2.22,0.09-3.37,0.1
		c-1.38,0.01-2.521-1.09-2.57-2.46c-0.028-0.96,0.46-1.82,1.23-2.29c-0.66,0.49-1.07,1.28-1.03,2.16c0.05,1.38,1.19,2.47,2.57,2.46
		C97.079,75.378,98.199,75.338,99.32,75.278z"/>
	<path fill="#05000F" d="M99.14,91.848v0.121c-0.07,0.049-0.132,0.09-0.2,0.129v-0.379C99.009,91.758,99.07,91.798,99.14,91.848z"/>
	<path fill="#FFFFFF" stroke="#FAFAFA" stroke-miterlimit="10" d="M98.94,92.098c-1.37,0.95-3.05,2.062-4.95,3.25h-0.01
		c-5.44-3.1-11.67-4.818-18.12-4.818c-11.34,0-21.5,5.17-28.24,13.279c-1.17-0.689-2.24-1.5-3.13-2.471v-3.01
		c7.8-8.471,18.98-13.78,31.37-13.78c8.12,0,16.148,2.57,23.08,7.17V92.098z"/>
	<path fill="#0A0000" d="M93.99,95.348c1.62,0.92,3.17,1.961,4.63,3.121c-8.33,5.449-26.01,15.891-36.56,14.18
		c-1.37-0.021-10.59-0.289-17.54-4.5c0.89-1.461,1.88-2.859,2.97-4.17c6.02,3.479,14.62,3.551,14.73,3.551
		c0.149,0,0.31,0.01,0.46,0.039c7.229,1.351,21.05-5.869,30.35-11.619c0.32-0.211,0.64-0.4,0.95-0.602H93.99L93.99,95.348z"/>
	<path fill="#FFFFFF" d="M93.98,95.348c-0.312,0.2-0.63,0.391-0.95,0.602c-9.3,5.72-22.97,12.83-30.14,11.488
		c-0.16-0.02-0.32-0.039-0.471-0.039c-0.109,0-8.79-0.069-14.8-3.59c6.74-8.109,16.9-13.279,28.24-13.279
		C82.31,90.527,88.539,92.248,93.98,95.348z"/>
	<path fill="#05000F" d="M78.1,141.668c0.108,0.04,0.21,0.061,0.318,0.09c0,0-0.108,0.051-0.318,0.15
		c-0.21-0.102-0.32-0.15-0.32-0.15C77.89,141.729,77.99,141.708,78.1,141.668z"/>
	<path fill="#0A0000" d="M78.1,141.668c-0.11,0.04-0.21,0.061-0.32,0.09c0,0,0.11,0.051,0.32,0.15c-2.512,1.14-19.392,8.3-35,1.859
		c-1.551-3.061-2.681-6.369-3.33-9.84c6.92,1.221,16.649,1.069,29.899-2.841C69.67,131.088,70.499,139.598,78.1,141.668z"/>
	<path fill="#05000F" d="M49.699,73.888c0.42-0.01,0.82-0.13,1.17-0.33c-0.39,0.27-0.86,0.44-1.37,0.46
		c-0.26,0.01-2.14,0.06-5.01-0.15v-0.14C47.469,73.948,49.429,73.898,49.699,73.888z"/>
	<path fill="#05000F" d="M47.619,103.809c-0.04,0.051-0.09,0.109-0.13,0.17c-1.2-0.689-2.3-1.521-3.21-2.511v-2.909
		c0.07-0.08,0.14-0.149,0.21-0.229v3.01C45.38,102.309,46.449,103.118,47.619,103.809z"/>
	<path fill="#05000F" d="M47.49,103.979c-1.09,1.311-2.08,2.709-2.97,4.17c-1.721-1.029-3.311-2.319-4.601-3.91
		c1.29-2.01,2.75-3.909,4.36-5.68v2.909C45.19,102.458,46.289,103.288,47.49,103.979z"/>
	<path fill="#FFFFFF" d="M39.92,104.238c1.29,1.59,2.88,2.88,4.601,3.91c-3.4,5.56-5.36,12.1-5.36,19.078
		c0,2.291,0.21,4.53,0.61,6.701c-2.44-0.431-4.53-1.041-6.3-1.721c-0.19-1.641-0.29-3.301-0.29-4.98
		C33.179,118.777,35.65,110.878,39.92,104.238z"/>
	<path fill="#0A0000" d="M39.769,133.928c0.649,3.471,1.779,6.78,3.33,9.84c-2.86-1.18-5.67-2.8-8.341-5.02
		c-0.59-2.12-1.029-4.311-1.289-6.54C35.24,132.889,37.329,133.498,39.769,133.928z"/>
	<path fill="#05000F" d="M33.469,132.208c0.26,2.229,0.699,4.42,1.289,6.54c-3.46-2.84-6.699-6.66-9.489-11.71
		C25.269,127.038,27.639,129.998,33.469,132.208z"/>
</g>
<g>
	<g id="XMLID_1_">
		<g>
			<path fill="#CB2128" d="M-47.042,32.927c0.08,0.62,1.771,15.42-8.271,26.84c-5.819,6.62-14.29,10.64-25.24,12l-0.189,18.49
				c-0.01,0.62-0.229,1.2-0.63,1.649c-1.359-1.18-2.8-2.27-4.279-3.26l0.17-16.569c-1.109,0.05-2.229,0.09-3.37,0.1
				c-1.391,0.01-2.529-1.09-2.58-2.47c-0.029-0.87,0.38-1.66,1.03-2.15c0.34-0.21,0.729-0.34,1.149-0.37l5.979-0.43
				c0.26-0.02,0.521,0.02,0.771,0.08c6.521-0.67,12.061-2.31,16.561-4.94c0.38-0.22,0.76-0.44,1.12-0.67
				c2.22-1.39,4.159-3.04,5.829-4.93c8.53-9.65,7.091-22.75,7.07-22.84c-1.41-10.26-5.471-17.84-12.08-22.52
				c-11-7.78-25.74-5.2-26.84-5c-5.2,1.55-14.11,2.4-20.7,2.84c-6.471,0.43-22.83-2.89-24.479-3.23
				c-11.569-1.49-20.971,0.03-27.971,4.51c-0.329,0.2-0.649,0.42-0.96,0.64c-0.409,0.28-0.811,0.57-1.199,0.87
				c-8.53,6.6-10.12,16.25-10.229,17.02c-0.811,10.67,1.8,19.23,7.739,25.43c7.109,7.42,17.67,10.13,24.95,11.12
				c0.271-0.07,0.55-0.11,0.84-0.08l7.681,0.64c1.351,0.11,2.38,1.26,2.34,2.61c-0.01,0.83-0.431,1.56-1.05,2.01
				c-0.011,0.01-0.03,0.02-0.051,0.03c-0.351,0.2-0.739,0.32-1.159,0.33c-0.271,0.01-2.24,0.07-5.221-0.15v0.13
				c-0.061,0-0.13,0-0.2-0.01v24.69c-1.609,1.771-3.069,3.67-4.359,5.69c-0.08-0.08-0.149-0.17-0.22-0.26
				c-0.351-0.44-0.54-1-0.54-1.57v-29.13c-7.971-1.23-18.899-4.38-26.681-12.49c-7.029-7.31-10.109-17.21-9.17-29.44
				c0-0.04,0.01-0.08,0.01-0.11c0.061-0.49,1.58-12.26,12.101-20.45c8.311-6.46,19.71-8.81,33.891-6.97
				c0.061,0.01,0.13,0.02,0.189,0.03c4.771,0.99,18.25,3.48,23.21,3.16c5.229-0.35,14.74-1.16,19.71-2.68
				c0.069-0.02,0.149-0.03,0.221-0.05c0.72-0.15,17.659-3.54,30.88,5.79C-53.442,12.387-48.652,21.157-47.042,32.927z"/>
			<path fill="#CB2128" d="M-51.922,33.457c0.021,0.09,1.46,13.19-7.07,22.84c-1.67,1.89-3.609,3.54-5.829,4.93
				c2.13-1.37,4.021-2.97,5.64-4.81c8.521-9.65,7.08-22.74,7.061-22.83c-1.409-10.26-5.47-17.84-12.08-22.52
				c-10.989-7.79-25.739-5.21-26.84-5c-5.2,1.55-14.109,2.4-20.689,2.83c-6.471,0.44-22.83-2.88-24.49-3.22
				c-11.47-1.47-20.79,0-27.771,4.38c7-4.48,16.4-6,27.971-4.51c1.649,0.34,18.01,3.66,24.479,3.23c6.59-0.44,15.5-1.29,20.7-2.84
				c1.1-0.2,15.84-2.78,26.84,5C-57.392,15.617-53.332,23.197-51.922,33.457z"/>
			<path fill="#CB2128" d="M-52.122,33.587c0.021,0.09,1.46,13.18-7.061,22.83c-1.62,1.84-3.51,3.44-5.641,4.81
				c-0.359,0.23-0.739,0.45-1.119,0.67c-4.46,2.54-9.939,4.15-16.37,4.81c-0.25-0.06-0.5-0.09-0.771-0.07l-5.971,0.42
				c-0.51,0.04-0.97,0.22-1.35,0.5c-0.771,0.46-1.261,1.32-1.229,2.28c0.05,1.38,1.189,2.47,2.579,2.46c1.15,0,2.261-0.04,3.37-0.09
				l-0.17,16.311c-6.939-4.601-14.96-7.169-23.08-7.169c-12.399,0-23.58,5.31-31.38,13.77v-24.46c2.87,0.22,4.76,0.16,5.021,0.15
				c0.5-0.02,0.971-0.18,1.359-0.46c0.021-0.01,0.04-0.02,0.051-0.03c0.739-0.43,1.229-1.23,1.26-2.14c0.021-1.35-1-2.5-2.351-2.61
				l-7.689-0.64c-0.279-0.03-0.561,0.01-0.83,0.08c-7.29-0.99-17.83-3.7-24.949-11.12c-5.939-6.2-8.551-14.76-7.74-25.43
				c0.109-0.76,1.689-10.42,10.221-17.02c0.33-0.26,0.67-0.5,1.01-0.74c0.311-0.22,0.631-0.44,0.96-0.64
				c6.979-4.38,16.301-5.85,27.771-4.38c1.66,0.34,18.021,3.66,24.49,3.22c6.58-0.43,15.489-1.28,20.689-2.83
				c1.101-0.21,15.851-2.79,26.84,5C-57.592,15.747-53.532,23.327-52.122,33.587z"/>
			<path fill="#CB2128" d="M-69.232,108.247l-6.551,0.01c-2.449-5.149-6.05-9.569-10.39-13c2.21-1.44,3.76-2.521,4.351-2.94
				c0.17-0.119,0.319-0.26,0.449-0.41C-76.302,96.247-72.092,101.787-69.232,108.247z"/>
			<path fill="#CB2128" d="M-78.522,144.577l7.3-0.04c-7.55,13.8-23.54,22.158-37.71,22.158c-19.55,0-36.061-13.198-41.101-31.158
				c2.671,2.22,5.479,3.85,8.341,5.02c6.061,11.95,18.47,20.16,32.76,20.16C-96.742,160.717-85.372,154.688-78.522,144.577z"/>
			<path fill="#CB2128" d="M-98.262,127.887c33.29,9.82,44.391-4.06,44.391-4.06c-6.729,12.18-16.04,17.22-24.979,18.8
				c-13.239,2.33-25.68-2.939-27.84-3.92c0.21-0.102,0.319-0.15,0.319-0.15c-0.109-0.029-0.21-0.05-0.319-0.09
				C-99.092,136.396-98.262,127.887-98.262,127.887z"/>
			<path fill="#CB2128" d="M-86.742,106.537c5.979,1.71,5.341,9.82,5.341,9.82h-18.57c-0.64-10.03,7.471-10.03,7.471-10.03
				c0.431,1.489,2.141,2.989,2.141,2.989C-88.662,109.747-86.742,106.537-86.742,106.537z"/>
			<path fill="#CB2128" d="M-81.372,91.906c-0.13,0.15-0.279,0.291-0.449,0.41c-0.591,0.42-2.141,1.5-4.351,2.939
				c-1.471-1.148-3.021-2.199-4.641-3.109v-0.01c0.011-0.011,0.029-0.021,0.05-0.029c0.33-0.2,0.65-0.4,0.961-0.61
				c1.489-0.95,2.829-1.83,3.949-2.61c0.069-0.039,0.13-0.08,0.2-0.13v-0.11C-84.172,89.637-82.732,90.727-81.372,91.906z"/>
			<path fill="#CB2128" d="M-85.482,72.077l-0.17,16.569c-0.07-0.049-0.141-0.09-0.2-0.129l0.17-16.312
				c-1.109,0.05-2.22,0.09-3.37,0.09c-1.39,0.01-2.529-1.08-2.579-2.46c-0.03-0.96,0.46-1.82,1.229-2.28
				c-0.65,0.49-1.061,1.28-1.03,2.15c0.051,1.38,1.189,2.48,2.58,2.47C-87.712,72.167-86.592,72.127-85.482,72.077z"/>
			<path fill="#CB2128" d="M-85.652,88.646v0.108c-0.07,0.052-0.131,0.091-0.2,0.132v-0.371
				C-85.792,88.557-85.722,88.598-85.652,88.646z"/>
			<path fill="#CB2128" d="M-85.852,88.887c-1.12,0.78-2.46,1.66-3.949,2.61c-0.311,0.2-0.631,0.41-0.961,0.61
				c-0.021,0.01-0.039,0.02-0.05,0.029c-5.439-3.101-11.67-4.821-18.12-4.821c-11.351,0-21.51,5.168-28.239,13.292
				c-1.181-0.68-2.25-1.5-3.141-2.471v-3.021c7.8-8.46,18.979-13.77,31.38-13.77c8.12,0,16.141,2.57,23.08,7.169V88.887
				L-85.852,88.887z"/>
			<path fill="#CB2128" d="M-90.812,92.146c1.62,0.91,3.17,1.959,4.641,3.108c-8.33,5.438-26.011,15.892-36.57,14.188
				c-1.369-0.02-10.59-0.299-17.539-4.5c0.89-1.469,1.89-2.858,2.97-4.18c6.021,3.48,14.63,3.551,14.729,3.551
				c0.16,0,0.319,0.021,0.471,0.051c7.439,1.39,21.859-6.311,31.149-12.131C-90.912,92.207-90.862,92.178-90.812,92.146z"/>
			<path fill="#CB2128" d="M-90.762,92.107c0.33-0.2,0.65-0.41,0.96-0.61C-90.112,91.707-90.432,91.906-90.762,92.107z"/>
			<path fill="#CB2128" d="M-90.812,92.137c-0.05,0.03-0.101,0.061-0.149,0.1c-9.301,5.802-23.561,13.382-30.939,12
				c-0.17-0.028-0.32-0.049-0.479-0.049c-0.101,0-8.771-0.061-14.79-3.58c6.729-8.121,16.891-13.291,28.239-13.291
				C-102.482,87.317-96.252,89.037-90.812,92.137z"/>
			<path fill="#CB2128" d="M-106.692,138.467c0.109,0.04,0.21,0.061,0.319,0.09c0,0-0.109,0.051-0.319,0.15
				c-0.221-0.09-0.33-0.15-0.33-0.15C-106.912,138.525-106.802,138.497-106.692,138.467z"/>
			<path fill="#CB2128" d="M-106.692,138.467c-0.11,0.03-0.221,0.061-0.33,0.09c0,0,0.109,0.063,0.33,0.15
				c-2.511,1.141-19.391,8.29-35,1.85c-1.551-3.06-2.689-6.369-3.33-9.84c6.92,1.229,16.649,1.08,29.899-2.83
				C-115.122,127.887-114.292,136.396-106.692,138.467z"/>
			<path fill="#CB2128" d="M-135.092,70.677c0.42-0.01,0.81-0.13,1.159-0.33c-0.39,0.28-0.859,0.44-1.359,0.46
				c-0.26,0.01-2.149,0.07-5.021-0.15v-0.13C-137.332,70.747-135.362,70.687-135.092,70.677z"/>
			<path fill="#CB2128" d="M-137.172,100.607c-0.051,0.05-0.091,0.1-0.141,0.16c-1.2-0.69-2.29-1.521-3.2-2.512v-2.92
				c0.061-0.068,0.131-0.141,0.2-0.22v3.021C-139.422,99.107-138.352,99.928-137.172,100.607z"/>
			<path fill="#CB2128" d="M-137.312,100.768c-1.08,1.319-2.08,2.709-2.971,4.18c-1.72-1.041-3.31-2.329-4.59-3.92
				c1.29-2.021,2.75-3.92,4.359-5.689v2.92C-139.602,99.247-138.512,100.077-137.312,100.768z"/>
			<path fill="#CB2128" d="M-144.872,101.027c1.28,1.59,2.87,2.879,4.59,3.92c-3.399,5.56-5.35,12.09-5.35,19.07
				c0,2.289,0.21,4.528,0.609,6.698c-2.439-0.43-4.53-1.038-6.301-1.72c-0.189-1.63-0.289-3.303-0.289-4.979
				C-151.612,115.557-149.132,107.667-144.872,101.027z"/>
			<path fill="#CB2128" d="M-145.022,130.717c0.641,3.471,1.779,6.78,3.33,9.84c-2.86-1.17-5.67-2.8-8.341-5.02
				c-0.59-2.12-1.029-4.301-1.289-6.54C-149.552,129.678-147.462,130.287-145.022,130.717z"/>
			<path fill="#CB2128" d="M-151.322,128.997c0.26,2.239,0.699,4.42,1.289,6.54c-3.46-2.842-6.699-6.66-9.489-11.71
				C-159.522,123.827-157.152,126.787-151.322,128.997z"/>
		</g>
	</g>
</g>
<g>
	<g id="XMLID_2_">
		<g>
			<path fill="#CB2128" d="M-238.441,106.241l-6.551,0.01c-2.449-5.149-6.039-9.56-10.39-12.989c2.21-1.439,3.76-2.531,4.351-2.951
				c0.17-0.119,0.329-0.26,0.449-0.408C-245.51,94.241-241.301,99.771-238.441,106.241z"/>
			<path fill="#CB2128" d="M-247.731,142.57l7.3-0.039c-7.55,13.81-23.53,22.17-37.71,22.17c-19.54,0-36.061-13.21-41.101-31.16
				c2.671,2.221,5.48,3.84,8.341,5.02c6.06,11.951,18.47,20.16,32.76,20.16C-265.95,158.721-254.58,152.691-247.731,142.57z"/>
			<path fill="#0A0000" d="M-267.47,125.881c33.3,9.82,44.4-4.05,44.4-4.05c-6.74,12.188-16.051,17.229-24.99,18.79
				c-13.26,2.33-25.71-2.95-27.84-3.92c0.21-0.102,0.319-0.15,0.319-0.15c-0.109-0.029-0.21-0.05-0.319-0.09
				C-268.301,134.391-267.47,125.881-267.47,125.881z"/>
			<path fill="#0A0000" d="M-255.941,104.541c5.979,1.7,5.33,9.811,5.33,9.811h-18.57c-0.64-10.021,7.47-10.021,7.47-10.021
				c0.431,1.489,2.141,2.979,2.141,2.979C-257.861,107.741-255.941,104.541-255.941,104.541z"/>
			<path fill="#05000F" d="M-250.58,89.9c-0.12,0.149-0.279,0.291-0.449,0.41c-0.591,0.42-2.141,1.51-4.351,2.949
				c-1.46-1.16-3.01-2.199-4.63-3.119c1.9-1.189,3.58-2.301,4.95-3.25c0.069-0.04,0.13-0.08,0.2-0.13v-0.12
				C-253.381,87.631-251.941,88.721-250.58,89.9z"/>
			<path fill="#05000F" d="M-254.861,86.641v0.12c-0.07,0.05-0.131,0.09-0.2,0.13v-0.38
				C-254.99,86.551-254.93,86.591-254.861,86.641z"/>
			<path fill="#FFFFFF" d="M-255.06,86.891c-1.37,0.95-3.05,2.06-4.95,3.25h-0.01c-5.44-3.1-11.67-4.82-18.12-4.82
				c-11.34,0-21.5,5.17-28.24,13.281c-1.17-0.689-2.24-1.5-3.13-2.471v-3.01c7.8-8.47,18.98-13.78,31.37-13.78
				c8.12,0,16.149,2.57,23.08,7.17V86.891L-255.06,86.891z"/>
			<path fill="#0A0000" d="M-260.01,90.141c1.62,0.92,3.17,1.961,4.63,3.121c-8.33,5.449-26.01,15.891-36.56,14.18
				c-1.37-0.021-10.59-0.289-17.54-4.5c0.89-1.461,1.88-2.859,2.97-4.17c6.02,3.479,14.62,3.551,14.73,3.551
				c0.149,0,0.31,0.01,0.46,0.039c7.229,1.351,21.05-5.869,30.35-11.619c0.32-0.21,0.64-0.4,0.95-0.602H-260.01z"/>
			<path fill="#FFFFFF" d="M-260.021,90.141c-0.311,0.2-0.63,0.391-0.95,0.602c-9.3,5.72-22.97,12.83-30.14,11.488
				c-0.16-0.02-0.32-0.039-0.471-0.039c-0.109,0-8.79-0.069-14.8-3.59c6.74-8.109,16.9-13.281,28.24-13.281
				C-271.691,85.321-265.461,87.041-260.021,90.141z"/>
			<path fill="#05000F" d="M-260.631,67.711c0.05,1.38,1.19,2.47,2.57,2.46c1.14,0,2.26-0.04,3.38-0.1l-0.18,16.57
				c-0.07-0.05-0.131-0.09-0.2-0.13l0.17-16.31c-1.101,0.05-2.22,0.09-3.37,0.1c-1.38,0.01-2.52-1.09-2.57-2.46
				c-0.029-0.96,0.46-1.82,1.23-2.29C-260.26,66.041-260.671,66.831-260.631,67.711z"/>
			<path fill="#05000F" d="M-275.901,136.461c0.109,0.04,0.21,0.061,0.319,0.09c0,0-0.109,0.051-0.319,0.15
				c-0.21-0.102-0.32-0.15-0.32-0.15C-276.111,136.521-276.01,136.501-275.901,136.461z"/>
			<path fill="#0A0000" d="M-275.901,136.461c-0.11,0.04-0.21,0.061-0.32,0.09c0,0,0.11,0.051,0.32,0.15
				c-2.511,1.14-19.391,8.3-35,1.859c-1.551-3.061-2.681-6.369-3.33-9.84c6.92,1.221,16.649,1.069,29.899-2.841
				C-284.33,125.881-283.501,134.391-275.901,136.461z"/>
			<path fill="#05000F" d="M-303.131,68.351c-0.39,0.27-0.86,0.44-1.37,0.46c-0.26,0.01-2.14,0.06-5.01-0.15v-0.14
				c2.98,0.22,4.94,0.17,5.21,0.16C-303.881,68.671-303.481,68.551-303.131,68.351z"/>
			<path fill="#05000F" d="M-305.43,3.671c-11.46-1.47-20.79,0-27.771,4.39c7-4.48,16.4-6.01,27.971-4.51
				c1.649,0.33,18.01,3.66,24.49,3.22c6.59-0.44,15.489-1.29,20.699-2.83c1.09-0.21,15.84-2.79,26.83,4.99
				c6.61,4.69,10.681,12.26,12.08,22.53c0.021,0.09,1.46,13.18-7.06,22.83c-1.351,1.53-2.88,2.9-4.59,4.09
				c1.619-1.17,3.09-2.49,4.39-3.96c8.53-9.65,7.08-22.74,7.07-22.83c-1.41-10.27-5.48-17.85-12.091-22.53
				c-10.989-7.78-25.729-5.2-26.84-5c-5.2,1.55-14.1,2.4-20.689,2.84C-287.41,7.331-303.771,4.011-305.43,3.671z"/>
			<path fill="#05000F" d="M-306.51,98.771c-1.09,1.311-2.08,2.709-2.97,4.17c-1.721-1.029-3.311-2.319-4.601-3.91
				c1.29-2.01,2.75-3.909,4.36-5.68v2.91C-308.81,97.251-307.711,98.081-306.51,98.771z"/>
			<path fill="#05000F" d="M-309.51,96.131c0.89,0.971,1.96,1.78,3.13,2.471c-0.04,0.051-0.09,0.109-0.13,0.17
				c-1.2-0.689-2.3-1.521-3.21-2.51v-2.91c0.07-0.08,0.14-0.149,0.21-0.229V96.131z"/>
			<path fill="#FFFFFF" d="M-312.7,63.001c-7.279-0.98-17.829-3.7-24.939-11.12c-5.95-6.2-8.55-14.76-7.75-25.42
				c0.12-0.77,1.689-10.42,10.22-17.02c0.33-0.26,0.67-0.5,1.01-0.74c0.311-0.22,0.631-0.44,0.96-0.64
				c6.98-4.39,16.311-5.86,27.771-4.39c1.66,0.34,18.02,3.66,24.49,3.23c6.59-0.44,15.489-1.29,20.689-2.84
				c1.11-0.2,15.851-2.78,26.84,5c6.61,4.68,10.681,12.26,12.091,22.53c0.01,0.09,1.46,13.18-7.07,22.83
				c-1.3,1.47-2.771,2.79-4.391,3.96c-0.369,0.27-0.739,0.52-1.13,0.77c-4.68,2.98-10.56,4.83-17.6,5.55
				c-0.25-0.05-0.51-0.09-0.771-0.07l-5.979,0.42c-0.5,0.04-0.96,0.22-1.34,0.5c-0.771,0.47-1.26,1.33-1.23,2.29
				c0.05,1.37,1.19,2.47,2.57,2.46c1.15-0.01,2.27-0.05,3.37-0.1l-0.17,16.31c-6.931-4.6-14.96-7.17-23.08-7.17
				c-12.391,0-23.57,5.31-31.37,13.78v-24.46c2.87,0.21,4.75,0.16,5.01,0.15c0.51-0.02,0.98-0.19,1.37-0.46
				c0.76-0.43,1.271-1.25,1.3-2.18c0.03-1.35-1-2.49-2.35-2.61l-7.69-0.64C-312.151,62.901-312.43,62.941-312.7,63.001z"/>
			<path fill="#0A0000" d="M-309.72,93.352c-1.61,1.771-3.07,3.67-4.36,5.68c-0.069-0.079-0.14-0.17-0.21-0.26
				c-0.35-0.449-0.55-1.01-0.55-1.58V68.062c-7.97-1.22-18.899-4.38-26.68-12.48c-7.021-7.31-10.11-17.22-9.17-29.45
				c0.01-0.03,0.01-0.07,0.01-0.11c0.06-0.49,1.58-12.25,12.11-20.44c8.3-6.47,19.71-8.82,33.88-6.98
				c0.069,0.01,0.13,0.02,0.189,0.03c4.78,0.99,18.261,3.49,23.221,3.16c5.229-0.35,14.739-1.16,19.699-2.67
				c0.07-0.02,0.15-0.04,0.221-0.06c0.72-0.15,17.66-3.53,30.88,5.8c7.83,5.52,12.62,14.29,14.24,26.07
				c0.079,0.62,1.77,15.42-8.28,26.83c-5.82,6.62-14.29,10.64-25.24,12.01l-0.189,18.48c0,0.609-0.23,1.189-0.631,1.65
				c-1.359-1.182-2.8-2.271-4.279-3.26l0.18-16.57c-1.12,0.06-2.24,0.1-3.38,0.1c-1.38,0.01-2.521-1.08-2.57-2.46
				c-0.04-0.88,0.37-1.67,1.03-2.16c0.34-0.21,0.729-0.34,1.149-0.37l5.971-0.42c0.26-0.02,0.52,0.01,0.77,0.07
				c7.141-0.73,13.09-2.63,17.8-5.68c0.391-0.25,0.761-0.5,1.131-0.77c1.71-1.19,3.239-2.56,4.59-4.09
				c8.52-9.65,7.08-22.74,7.06-22.83c-1.399-10.27-5.47-17.84-12.08-22.53c-10.99-7.78-25.74-5.2-26.83-4.99
				c-5.21,1.54-14.109,2.39-20.699,2.83c-6.48,0.44-22.841-2.89-24.49-3.22c-11.57-1.5-20.971,0.03-27.971,4.51
				c-0.329,0.2-0.649,0.42-0.96,0.64c-0.409,0.27-0.81,0.57-1.199,0.87c-8.53,6.59-10.12,16.25-10.23,17.01
				c-0.8,10.67,1.8,19.23,7.74,25.43c7.109,7.42,17.67,10.14,24.95,11.12c0.279-0.07,0.55-0.11,0.84-0.08l7.68,0.64
				c1.351,0.11,2.38,1.26,2.351,2.61c-0.021,0.85-0.45,1.59-1.101,2.05c-0.35,0.2-0.75,0.32-1.17,0.33
				c-0.27,0.01-2.229,0.06-5.21-0.16v0.14c-0.07,0-0.14,0-0.21-0.01V93.352z"/>
			<path fill="#CB2128" d="M-314.08,99.031c1.29,1.59,2.88,2.88,4.601,3.91c-3.4,5.56-5.36,12.1-5.36,19.078
				c0,2.291,0.21,4.53,0.61,6.701c-2.44-0.431-4.53-1.041-6.3-1.721c-0.19-1.641-0.29-3.3-0.29-4.98
				C-320.821,113.57-318.35,105.671-314.08,99.031z"/>
			<path fill="#0A0000" d="M-314.231,128.721c0.649,3.471,1.779,6.78,3.33,9.84c-2.86-1.18-5.67-2.799-8.341-5.02
				c-0.59-2.12-1.029-4.311-1.289-6.54C-318.76,127.682-316.671,128.291-314.231,128.721z"/>
			<path fill="#05000F" d="M-320.531,127.001c0.26,2.229,0.699,4.42,1.289,6.54c-3.46-2.84-6.699-6.66-9.489-11.71
				C-328.731,121.831-326.361,124.791-320.531,127.001z"/>
		</g>
	</g>
</g>
</svg>
