<?xml version="1.0" encoding="utf-8"?>
<!-- Generator: Adobe Illustrator 16.0.0, SVG Export Plug-In . SVG Version: 6.00 Build 0)  -->
<!DOCTYPE svg PUBLIC "-//W3C//DTD SVG 1.1//EN" "http://www.w3.org/Graphics/SVG/1.1/DTD/svg11.dtd">
<svg version="1.1" id="Capa_1" xmlns="http://www.w3.org/2000/svg" xmlns:xlink="http://www.w3.org/1999/xlink" x="0px" y="0px"
	 width="483px" height="231px" viewBox="0 0 483 231" enable-background="new 0 0 483 231" xml:space="preserve">
<path fill="#A22330" d="M-44.601,333.857"/>
<path fill="#A22330" d="M535.645,206.774"/>
<path fill="#CB2128" d="M-44.601,325.111"/>
<path fill="#CB2128" d="M528.549,201.189"/>
<g>
	<path fill="#FFFFFF" stroke="#FFFFFF" stroke-width="2.7119" stroke-miterlimit="10" d="M114.747,111.12
		c-7.262-16.431-23.324-26.901-39.701-26.901c-23.533,0-42.68,19.145-42.68,42.675c0,23.537,19.147,42.682,42.68,42.682
		c14.177,0,30.164-8.362,37.708-22.166l-7.298,0.041c-6.851,10.112-18.219,16.147-30.411,16.147c-20.237,0-36.7-16.461-36.7-36.704
		c0-20.236,16.463-36.7,36.7-36.7c14.079,0,27.094,8.212,33.154,20.938L114.747,111.12z"/>
	<path fill="#FFFFFF" stroke="#FFFFFF" stroke-width="2.7119" stroke-miterlimit="10" d="M372.59,111.12
		c-7.258-16.431-23.326-26.901-39.703-26.901c-23.528,0-42.673,19.145-42.673,42.675c0,23.537,19.146,42.682,42.673,42.682
		c14.184,0,30.169-8.362,37.714-22.166l-7.297,0.041c-6.851,10.112-18.221,16.147-30.417,16.147
		c-20.236,0-36.702-16.461-36.702-36.704c0-20.236,16.465-36.7,36.702-36.7c14.079,0,27.096,8.212,33.157,20.938L372.59,111.12z"/>
	<path fill="#FFFFFF" stroke="#FFFFFF" stroke-width="2.7119" stroke-miterlimit="10" d="M267.31,127.348l-0.204-3.177
		c-1.409-22.403-20.119-39.952-42.594-39.952c-23.539,0-42.678,19.145-42.678,42.675c0,23.537,19.14,42.682,42.678,42.682
		c14.164,0,28.12-6.513,38.222-22.166l-7.83,0.063c-6.852,10.095-18.209,16.125-30.392,16.125c-20.083,0-36.45-16.223-36.69-36.25
		h76.303H267.31z M224.512,90.193c18.249,0,33.602,13.458,36.279,31.174h-72.562C190.897,103.743,206.151,90.193,224.512,90.193z"/>
	<path fill="#FFFFFF" stroke="#FFFFFF" stroke-width="2.7119" stroke-miterlimit="10" d="M418.28,169.575
		c23.534,0,42.68-19.145,42.68-42.682c0-23.53-19.146-42.675-42.68-42.675c-23.53,0-42.682,19.145-42.682,42.675
		C375.598,150.43,394.75,169.575,418.28,169.575z M381.574,126.894c0-20.236,16.473-36.7,36.706-36.7
		c20.237,0,36.7,16.464,36.7,36.7c0,20.243-16.462,36.704-36.7,36.704C398.046,163.598,381.574,147.137,381.574,126.894z"/>
	<path fill="#FFFFFF" stroke="#FFFFFF" stroke-width="2.7119" stroke-miterlimit="10" d="M177.025,127.231
		c-1.637-8.824-9.616-25.501-28.127-25.501c-10.922,0-18.379,5.444-23.052,11.575V84.229h-5.974v83.67h5.974v-41.449
		c0.713-2.561,5.881-18.742,23.052-18.742c17.289,0,21.688,17.964,22.198,20.365v40.257h5.98v-40.56v-0.27L177.025,127.231z"/>
	<path fill="#FFFFFF" stroke="#FFFFFF" stroke-width="2.7119" stroke-miterlimit="10" d="M276.981,84.083
		c-0.188,0.14-17.377,12.009-0.496,42.569c9.938,17.998-10.418,42.857-10.6,43.066h7.386c0.838-0.986,21.067-24.66,8.442-45.953
		c-14.989-25.307,1.211-39.227,1.818-39.682H276.981z"/>
	<g>
		<path fill-rule="evenodd" clip-rule="evenodd" d="M136.941,35.805c-1.614-11.777-6.405-20.543-14.235-26.07
			c-13.219-9.331-30.162-5.943-30.877-5.797c-0.074,0.02-0.151,0.039-0.224,0.057c-4.963,1.513-14.473,2.324-19.7,2.673
			C66.94,6.997,53.46,4.502,48.688,3.512C48.627,3.501,48.562,3.49,48.5,3.48c-14.178-1.838-25.58,0.511-33.886,6.976
			C4.089,18.645,2.566,30.408,2.506,30.903c0,0.034-0.006,0.075-0.011,0.11c-0.937,12.226,2.147,22.134,9.17,29.443
			c7.782,8.104,18.713,11.26,26.681,12.484v29.132c0,0.571,0.196,1.125,0.545,1.573c6.39,8.219,20.619,8.649,22.349,8.675
			c13.355,2.157,38.118-15.133,40.919-17.128c0.67-0.475,1.071-1.24,1.075-2.058l0.194-18.488
			c10.946-1.366,19.421-5.387,25.241-12.005C138.711,51.228,137.02,36.427,136.941,35.805z M124.795,59.296
			c-5.196,5.877-13.03,9.364-23.319,10.413c-0.251-0.057-0.508-0.094-0.77-0.073l-5.974,0.426c-1.381,0.099-2.429,1.275-2.379,2.653
			s1.188,2.469,2.573,2.461c1.15-0.005,2.265-0.042,3.367-0.095l-0.167,16.686c-7.971,5.5-27.238,17.154-36.256,15.471
			c-0.154-0.028-0.31-0.042-0.469-0.042c-0.125,0-12.474-0.101-17.933-6.06V73.525c2.984,0.227,4.951,0.169,5.218,0.158
			c1.352-0.051,2.437-1.148,2.465-2.504c0.032-1.351-0.998-2.498-2.348-2.608l-7.68-0.642c-0.284-0.027-0.562,0.012-0.833,0.082
			c-7.283-0.988-17.842-3.7-24.954-11.124c-5.938-6.2-8.544-14.755-7.736-25.429c0.11-0.764,1.692-10.418,10.223-17.014
			C24.994,8.904,35.063,6.92,47.76,8.554c1.654,0.336,18.014,3.654,24.484,3.223c6.588-0.438,15.491-1.288,20.694-2.837
			c1.104-0.203,15.848-2.784,26.842,5c6.61,4.682,10.674,12.257,12.083,22.525C131.875,36.557,133.322,49.646,124.795,59.296z"/>
		<path fill-rule="evenodd" clip-rule="evenodd" fill="#FFFFFF" d="M119.978,13.812c-10.996-7.784-25.741-5.203-26.837-4.996
			c-5.207,1.547-14.108,2.395-20.699,2.833c-6.474,0.437-22.833-2.888-24.483-3.222c-12.69-1.639-22.771,0.346-29.94,5.89
			C9.488,20.914,7.913,30.57,7.796,31.333C6.99,42.003,9.594,50.559,15.542,56.762c7.113,7.419,17.662,10.135,24.946,11.121
			c0.27-0.069,0.552-0.106,0.832-0.083l7.688,0.643c1.348,0.113,2.376,1.256,2.349,2.609c-0.04,1.357-1.115,2.454-2.471,2.503
			c-0.269,0.009-2.235,0.066-5.212-0.157v27.611c5.448,5.958,17.804,6.057,17.928,6.057c0.155,0,0.312,0.017,0.473,0.042
			c9.015,1.682,28.277-9.971,36.253-15.471L98.5,74.953c-1.113,0.054-2.233,0.092-3.376,0.097c-1.38,0.008-2.522-1.083-2.573-2.464
			c-0.051-1.382,0.994-2.554,2.376-2.654l5.976-0.422c0.263-0.021,0.516,0.015,0.767,0.071c10.294-1.049,18.126-4.536,23.324-10.41
			c8.525-9.652,7.082-22.744,7.064-22.834C130.652,26.073,126.587,18.496,119.978,13.812z"/>
	</g>
	<g>
		<path fill="#FFFFFF" d="M300.898,213.003l-0.116,0.309c-1.149,2.753-2.114,5.134-2.888,7.142
			c-0.781,2.003-1.457,3.984-2.045,5.928c-0.263,0.919-0.484,1.499-0.652,1.726c-0.163,0.227-0.437,0.383-0.846,0.451
			c-0.492,0.086-1.003-0.117-1.511-0.626c-0.505-0.507-0.824-1.12-0.964-1.857c-0.052-0.337-0.036-0.762,0.042-1.257
			c0.333-1.857,1.205-4.413,2.605-7.673l1.603-3.736l0.107-0.262c-1.307-0.089-2.469-0.328-3.494-0.723
			c-1.025-0.392-1.837-0.922-2.473-1.586c-0.627-0.677-1.01-1.44-1.161-2.29c-0.287-1.659,0.276-3.298,1.695-4.932
			c1.411-1.63,3.491-2.987,6.231-4.107c-1.16,1.313-2.088,2.532-2.838,3.642c-0.731,1.128-1.272,2.164-1.612,3.126
			c-0.338,0.957-0.442,1.786-0.315,2.491c0.126,0.714,0.573,1.217,1.338,1.526c0.757,0.295,1.929,0.423,3.488,0.388l0.272-0.018
			l0.123-0.25c1.02-2.139,2.656-5.301,4.915-9.469l0.614-1.143c-0.698,0.204-1.234,0.345-1.625,0.415
			c-0.493,0.083-1.091,0.13-1.814,0.164c1.103-0.696,1.997-1.328,2.651-1.891c0.667-0.569,1.423-1.388,2.273-2.44
			c0.843-1.057,1.875-2.452,3.097-4.195c0.718-0.966,1.308-1.506,1.799-1.594c0.48-0.083,0.969,0.085,1.495,0.491
			c0.509,0.411,0.813,0.92,0.925,1.521c0.083,0.491,0,1.034-0.245,1.64c-0.202,0.381-0.906,1.579-2.133,3.568
			c-0.223,0.357-0.526,0.837-0.892,1.459c-0.377,0.622-0.76,1.231-1.133,1.854c-0.387,0.625-0.696,1.111-0.934,1.47
			c-1.605,2.618-2.979,5.126-4.118,7.544l-0.171,0.313l0.182-0.032l0.104-0.016c1.504-0.312,2.863-0.635,4.07-0.985
			c1.203-0.349,2.625-0.813,4.278-1.399c1.661-0.59,3.211-1.195,4.637-1.819c1.44-0.628,2.71-1.242,3.823-1.828
			c2.04-1.091,3.919-2.276,5.633-3.569c1.702-1.279,3.194-2.617,4.462-4.004c1.277-1.388,2.305-2.837,3.107-4.336
			c0.839-1.588,1.136-2.949,0.935-4.105c-0.272-1.559-1.51-2.55-3.704-2.98c-1.114-0.2-2.365-0.279-3.787-0.222
			c-1.409,0.048-3.003,0.231-4.799,0.547c-3.102,0.546-6.145,1.293-9.114,2.234c-2.987,0.946-5.689,2.023-8.135,3.247
			c-2.192,1.101-3.695,2.025-4.521,2.79c-0.835,0.769-1.536,1.838-2.099,3.24c-1.223-0.98-1.922-1.955-2.087-2.918
			c-0.131-0.718-0.018-1.445,0.319-2.175c0.354-0.741,0.888-1.417,1.615-2.023c1.567-1.29,3.864-2.619,6.876-3.974
			c4.384-1.941,9.282-3.387,14.672-4.333c3.224-0.571,5.871-0.745,7.957-0.546c2.065,0.205,3.842,0.837,5.298,1.912
			c1.019,0.755,1.893,1.791,2.625,3.101c0.737,1.312,1.229,2.705,1.489,4.176c0.215,1.21,0.221,2.376,0,3.474
			c-0.21,1.101-0.625,2.157-1.261,3.183c-0.625,1.013-1.532,2.099-2.742,3.25c-4.22,3.983-10.033,7.228-17.423,9.739
			c-3.77,1.321-7.444,2.285-11.016,2.913C302.616,212.828,301.723,212.949,300.898,213.003z"/>
		<path fill="#FFFFFF" d="M345.693,189.635c0.353,0.304,0.716,0.42,1.056,0.36c0.245-0.047,0.539-0.232,0.869-0.577
			c0.341-0.338,0.849-0.913,1.516-1.724c0.547-0.659,0.989-1.169,1.333-1.54c0.599-0.657,0.851-1.247,0.758-1.767
			c-0.104-0.582-0.387-1.07-0.843-1.456c-0.453-0.395-0.912-0.556-1.384-0.471c-0.55,0.098-1.388,1-2.541,2.701
			c-1.059,1.604-1.518,2.755-1.39,3.44C345.137,188.99,345.342,189.329,345.693,189.635z M340.546,201.471
			c1.007-1.745,1.596-2.748,1.755-3.018c0.403-0.625,0.638-1.093,0.707-1.375c0.077-0.281,0.068-0.647-0.01-1.108
			c-0.112-0.625-0.344-1.144-0.697-1.565c-0.343-0.428-0.699-0.605-1.082-0.54c-0.38,0.071-0.761,0.416-1.183,1.031
			c-2.409,3.497-4.742,6.083-6.986,7.738c0.297-0.029,0.627-0.077,0.987-0.141c1.001-0.173,1.807-0.503,2.46-0.988l-0.104,0.229
			c-1.652,3.257-2.808,5.662-3.476,7.22c-0.672,1.563-1.285,3.328-1.857,5.299c-0.272,1.016-0.352,1.754-0.272,2.242
			c0.104,0.549,0.504,1.104,1.207,1.667c0.682,0.534,1.207,0.755,1.601,0.683c0.217-0.034,0.412-0.154,0.564-0.348
			c0.157-0.187,0.445-0.699,0.863-1.501c1.099-2.118,1.83-3.51,2.208-4.187c0.922-1.485,1.927-2.774,3.033-3.87
			c1.776-1.774,4.014-3.141,6.721-4.104c0.646-0.218,0.932-0.536,0.856-0.96c-0.078-0.45-0.371-0.625-0.882-0.537
			c-0.977,0.167-2.398,0.726-4.255,1.65c-1.874,0.922-3.731,2.174-5.579,3.763c1.067-2.597,2.117-4.862,3.159-6.788l0.138-0.246
			L340.546,201.471z"/>
		<path fill="#FFFFFF" d="M358.436,200.966l0.254-0.042l3.318-0.686l0.35-0.063c0.46-0.082,0.763-0.102,0.919-0.065
			c0.146,0.042,0.237,0.173,0.283,0.403c0.071,0.418-0.065,0.829-0.438,1.243c-0.358,0.413-0.816,0.658-1.376,0.758l-0.354,0.06
			c-2.203,0.35-4.042,0.652-5.514,0.914l-0.153,0.031l-0.223,0.184c-2.709,2.556-5.266,5.289-7.708,8.188l0.843-0.174l7.088-1.449
			c0.972-0.172,2.363-0.401,4.204-0.683c0.693-0.124,1.076,0.043,1.161,0.486c0.081,0.468-0.27,0.805-1.03,1.017
			c-2.535,0.729-4.722,1.509-6.543,2.348l-6.295,2.859c-0.386,0.167-0.745,0.283-1.08,0.341c-0.748,0.135-1.452-0.105-2.129-0.715
			c-0.668-0.604-1.085-1.409-1.263-2.393c-0.116-0.648-0.007-1.231,0.313-1.738c0.184-0.29,0.435-0.597,0.753-0.946
			c0.306-0.367,0.898-1.032,1.775-1.996c0.345-0.394,0.595-0.67,0.74-0.831c0.151-0.164,0.292-0.32,0.443-0.471l2.958-3.105
			l0.176-0.229l-0.207,0.033c-0.973,0.179-2.22,0.534-3.761,1.09c-0.287,0.105-0.465,0.173-0.531,0.186
			c-0.458,0.082-0.734-0.107-0.815-0.565c-0.068-0.378,0.157-0.7,0.673-0.961c0.52-0.256,1.601-0.642,3.287-1.13l3.669-1.056
			l0.232-0.07l0.229-0.164l1.499-1.392c2.331-2.107,4.646-4.016,6.949-5.75c-0.535,0.08-1.167,0.182-1.846,0.302
			c-2.574,0.453-5.657,1.22-9.215,2.312c-0.128,0.04-0.298,0.079-0.528,0.119c-0.406,0.068-0.636-0.05-0.699-0.384
			c-0.04-0.256,0.308-0.616,1.042-1.058c2.152-1.217,4.572-2.421,7.281-3.613c2.711-1.179,4.625-1.865,5.731-2.063
			c0.823-0.146,1.539,0.095,2.152,0.702c0.624,0.615,1.031,1.5,1.229,2.636c0.081,0.488,0.011,0.913-0.237,1.287
			c-0.254,0.37-0.768,0.852-1.59,1.452c-1.987,1.465-3.925,3.032-5.813,4.679L358.436,200.966z"/>
		<path fill="#FFFFFF" d="M381.272,196.938l0.246-0.04l3.32-0.685l0.375-0.067c0.444-0.075,0.744-0.099,0.893-0.06
			c0.159,0.037,0.256,0.17,0.295,0.399c0.07,0.417-0.079,0.828-0.444,1.248c-0.354,0.405-0.818,0.653-1.363,0.754l-0.369,0.064
			c-2.192,0.345-4.041,0.647-5.514,0.907l-0.156,0.026l-0.21,0.189c-2.706,2.558-5.286,5.289-7.724,8.19l0.858-0.174l7.076-1.451
			c0.975-0.177,2.373-0.398,4.209-0.685c0.695-0.122,1.07,0.042,1.15,0.492c0.087,0.461-0.256,0.803-1.01,1.015
			c-2.545,0.726-4.732,1.504-6.55,2.352l-6.305,2.854c-0.379,0.165-0.738,0.285-1.063,0.337c-0.75,0.135-1.459-0.1-2.127-0.71
			c-0.676-0.599-1.108-1.409-1.275-2.394c-0.12-0.644,0-1.229,0.324-1.737c0.183-0.287,0.424-0.599,0.738-0.943
			c0.308-0.369,0.907-1.036,1.784-1.996c0.343-0.394,0.593-0.675,0.76-0.838c0.138-0.163,0.279-0.314,0.415-0.469l2.974-3.108
			l0.17-0.227l-0.205,0.039c-0.983,0.168-2.233,0.53-3.771,1.085c-0.287,0.109-0.457,0.18-0.522,0.189
			c-0.464,0.08-0.741-0.114-0.815-0.572c-0.064-0.367,0.15-0.693,0.673-0.952c0.507-0.264,1.608-0.644,3.277-1.133l3.675-1.054
			l0.237-0.069l0.217-0.165l1.509-1.4c2.337-2.1,4.657-4.018,6.948-5.744c-0.538,0.076-1.166,0.18-1.854,0.302
			c-2.58,0.451-5.651,1.22-9.219,2.307c-0.109,0.044-0.294,0.084-0.519,0.127c-0.405,0.067-0.632-0.056-0.691-0.386
			c-0.042-0.257,0.3-0.623,1.035-1.063c2.145-1.215,4.579-2.424,7.281-3.604c2.716-1.189,4.625-1.877,5.738-2.071
			c0.803-0.143,1.525,0.098,2.149,0.704c0.628,0.612,1.031,1.495,1.234,2.64c0.081,0.482,0.005,0.913-0.242,1.282
			c-0.26,0.368-0.788,0.854-1.599,1.457c-1.966,1.456-3.916,3.024-5.815,4.675L381.272,196.938z"/>
		<path fill="#FFFFFF" d="M396.019,195.182c-0.848,1.303-1.492,2.574-1.941,3.802c-0.449,1.244-0.614,2.224-0.483,2.956
			c0.117,0.634,0.515,0.887,1.202,0.769c0.273-0.05,0.557-0.159,0.846-0.304c0.76-0.361,2.178-1.348,4.253-2.943
			c2.224-1.721,4.094-3.059,5.576-4.014c1.473-0.955,2.954-1.779,4.407-2.458c1.522-0.711,2.615-1.125,3.268-1.236
			c0.483-0.083,0.765,0.082,0.845,0.516c0.04,0.241-0.007,0.442-0.137,0.599c-0.126,0.148-0.394,0.319-0.794,0.487
			c-1.798,0.697-3.483,1.568-5.061,2.622c-1.573,1.065-3.166,2.385-4.755,3.972c-1.604,1.609-3.559,3.771-5.862,6.529
			c-0.732,0.884-1.438,1.38-2.116,1.496c-0.412,0.074-0.85,0.027-1.307-0.148c-0.452-0.185-0.972-0.498-1.566-0.945
			c-1.565-1.155-2.474-2.357-2.691-3.618c-0.309-1.739,0.148-3.92,1.361-6.568c1.22-2.646,2.931-5.138,5.121-7.503
			c1.597-1.679,3.283-3.162,5.061-4.447c1.77-1.285,3.136-2.015,4.08-2.182c0.489-0.081,1.008,0.027,1.575,0.321
			c0.568,0.296,1.057,0.71,1.476,1.239c0.402,0.534,0.668,1.091,0.771,1.681c0.255,1.456-0.47,3.292-2.165,5.51
			c-1.146,1.577-2.326,2.882-3.532,3.886c-1.202,1.007-2.263,1.593-3.187,1.755c-0.78,0.14-1.47,0.071-2.102-0.192
			C397.531,196.498,396.823,195.97,396.019,195.182z M397.19,193.637c0.647,0.671,1.288,0.947,1.912,0.836
			c0.836-0.145,1.781-0.683,2.843-1.602c1.048-0.929,2.031-2.047,2.947-3.342c0.785-1.088,1.124-1.856,1.051-2.309
			c-0.052-0.269-0.233-0.375-0.566-0.315c-0.862,0.153-2.163,0.918-3.844,2.289C399.847,190.576,398.392,192.063,397.19,193.637z"/>
		<path fill="#FFFFFF" d="M427.756,191.765c-0.986-0.016-1.848-0.238-2.603-0.659c-0.74-0.439-1.175-0.981-1.286-1.624
			c-0.081-0.433,0.225-1.348,0.902-2.766c-2.177,1.575-4.059,3.356-5.659,5.347c-2.341,2.938-4.542,6.612-6.612,11.03
			c-0.656,1.346-1.18,2.052-1.58,2.121c-0.428,0.074-0.939-0.175-1.543-0.758c-0.576-0.5-0.914-1.045-1.022-1.641
			c-0.094-0.544,0.038-1.279,0.397-2.201c1.535-4.021,3.319-7.929,5.368-11.715l0.418-0.813c-1.085,0.407-1.95,0.66-2.601,0.78
			c-0.102,0.015-0.207,0.033-0.326,0.051c-0.103,0.007-0.283,0.032-0.534,0.074c2.768-2.122,4.858-4.532,6.247-7.217
			c0.362-0.689,0.605-1.118,0.753-1.268c0.125-0.144,0.351-0.252,0.627-0.299c0.515-0.088,0.978,0.08,1.385,0.493
			c0.439,0.426,0.704,0.998,0.837,1.729c0.139,0.76-0.03,1.525-0.505,2.296l-2.713,4.47c-0.91,1.535-1.849,3.447-2.755,5.723
			c1.205-1.639,2.176-2.94,2.928-3.905c0.756-0.963,1.417-1.781,1.99-2.469l3.893-4.633c1.8-2.188,3.083-3.637,3.842-4.372
			c0.766-0.737,1.407-1.148,1.95-1.248c0.473-0.082,0.958,0.09,1.42,0.504c0.455,0.422,0.753,0.971,0.87,1.637
			c0.1,0.546-0.107,1.191-0.549,1.918l-1.523,2.441c-1.009,1.638-1.678,2.887-2.002,3.748c-0.315,0.842-0.417,1.602-0.31,2.274
			C427.52,191.117,427.626,191.437,427.756,191.765z"/>
		<path fill="#FFFFFF" d="M437.625,184.579l-0.114,0.243c-1.172,2.113-2.224,4.373-3.165,6.787c1.862-1.613,3.726-2.866,5.566-3.768
			c0.623-0.325,1.418-0.66,2.394-1.021c0.974-0.365,1.582-0.577,1.851-0.625c0.521-0.092,0.829,0.087,0.908,0.537
			c0.075,0.421-0.218,0.751-0.869,0.959c-2.677,0.944-4.922,2.313-6.715,4.108c-1.175,1.143-2.184,2.439-3.035,3.864
			c-0.523,0.91-1.277,2.312-2.235,4.198c-0.432,0.806-0.71,1.313-0.855,1.498c-0.145,0.188-0.326,0.31-0.542,0.35
			c-0.387,0.064-0.921-0.153-1.608-0.689c-0.709-0.564-1.096-1.113-1.196-1.665c-0.098-0.545-0.009-1.292,0.254-2.24
			c0.586-1.976,1.204-3.742,1.877-5.303c0.651-1.554,1.819-3.959,3.461-7.215l0.117-0.239c-0.643,0.491-1.46,0.815-2.471,0.99
			c-0.365,0.07-0.693,0.117-0.977,0.146c2.223-1.634,4.551-4.219,6.959-7.737c0.434-0.62,0.842-0.963,1.208-1.032
			c0.387-0.066,0.754,0.106,1.097,0.535c0.335,0.423,0.571,0.941,0.683,1.572c0.08,0.458,0.085,0.825,0.01,1.102
			c-0.07,0.283-0.316,0.753-0.706,1.384c-0.521,0.853-1.113,1.856-1.76,3.02L437.625,184.579z M446.964,165.637
			c0.487-0.085,1.016,0.042,1.56,0.382c0.543,0.34,0.868,0.761,0.954,1.27c0.084,0.466-0.148,0.857-0.696,1.159l-3.391,1.94
			c-1.198,0.693-2.345,1.408-3.441,2.178c-0.37,0.27-0.688,0.426-0.915,0.471c-0.22,0.036-0.397,0-0.578-0.106
			c-0.166-0.104-0.267-0.229-0.291-0.372c-0.04-0.223,0.133-0.614,0.534-1.192c1.108-1.528,2.269-2.83,3.458-3.922
			C445.341,166.366,446.281,165.756,446.964,165.637z"/>
		<path fill="#FFFFFF" d="M457.232,179.419c-0.296,0.935-1.185,2.4-2.674,4.395c-2.358,3.155-4.961,5.742-7.782,7.745
			c-1.375,0.969-2.321,1.505-2.853,1.598c-0.311,0.052-0.476-0.04-0.509-0.262c-0.069-0.387,0.309-1.263,1.161-2.643
			c0.553-0.955,1.271-2.015,2.145-3.159c0.879-1.15,1.792-2.21,2.757-3.189c0.979-0.971,1.905-1.819,2.806-2.515
			c0.81-0.664,1.655-1.27,2.554-1.831c0.906-0.551,1.576-0.866,1.962-0.936c0.292-0.052,0.455,0.035,0.501,0.292
			C457.328,179.069,457.313,179.236,457.232,179.419z M459.745,183.529l1.524-3.035c0.308-0.563,0.417-1.033,0.345-1.439
			c-0.056-0.322-0.279-0.62-0.683-0.884c0.64-1.097,0.902-1.987,0.782-2.663c-0.142-0.804-0.498-1.434-1.063-1.887
			c-0.575-0.432-1.257-0.594-2.042-0.458c-1.195,0.214-2.945,1.123-5.246,2.733c-2.286,1.593-4.404,3.385-6.334,5.353
			c-2.628,2.665-4.648,5.286-6.056,7.858c-1.425,2.573-1.991,4.653-1.714,6.238c0.196,1.14,0.698,2.154,1.48,3.056
			c0.782,0.902,1.538,1.287,2.25,1.158c0.561-0.098,1.433-0.803,2.621-2.124c2.641-2.918,5.568-6.674,8.773-11.273l0.73-1.005
			l-0.444,1.018c-1.09,2.589-1.875,4.601-2.343,6.045c-0.456,1.445-0.647,2.431-0.554,2.964c0.125,0.715,0.617,1.357,1.498,1.934
			c0.545,0.362,1.011,0.51,1.397,0.453c0.282-0.055,0.507-0.181,0.664-0.369c0.178-0.204,0.326-0.514,0.448-0.943
			c0.64-1.867,1.313-3.463,2.009-4.779c0.712-1.32,1.507-2.475,2.393-3.457c0.875-0.981,1.897-1.842,3.066-2.577
			c1.172-0.733,2.42-1.315,3.768-1.762c0.754-0.237,1.088-0.581,1.002-1.022c-0.078-0.441-0.354-0.627-0.81-0.555
			c-0.471,0.086-1.271,0.355-2.4,0.805c-2.55,1.017-4.697,2.27-6.448,3.777C459.01,185.086,459.484,184.035,459.745,183.529z"/>
	</g>
	<g>
		<g>
			<path fill="#FFFFFF" d="M468.13,98.403c-1.921,0-3.731-0.748-5.089-2.11c-1.361-1.359-2.11-3.167-2.11-5.09
				c0-1.925,0.75-3.733,2.11-5.092c1.358-1.359,3.168-2.111,5.089-2.111c1.926,0,3.729,0.751,5.092,2.111
				c1.358,1.359,2.106,3.167,2.106,5.092c0,1.922-0.748,3.73-2.106,5.09C471.86,97.655,470.057,98.403,468.13,98.403L468.13,98.403z
				 M468.13,85.113c-3.354,0-6.085,2.731-6.085,6.089c0,3.355,2.731,6.089,6.085,6.089c3.36,0,6.088-2.733,6.088-6.089
				C474.219,87.844,471.491,85.113,468.13,85.113L468.13,85.113z"/>
		</g>
		<g>
			<path fill="#FFFFFF" d="M466.188,87.556c0.5-0.093,1.229-0.159,1.906-0.159c1.06,0,1.759,0.205,2.226,0.627
				c0.379,0.342,0.603,0.87,0.603,1.473c0,1.005-0.638,1.677-1.436,1.951v0.035c0.578,0.204,0.935,0.753,1.116,1.553
				c0.251,1.072,0.435,1.813,0.594,2.112h-1.028c-0.124-0.229-0.295-0.88-0.497-1.84c-0.233-1.06-0.656-1.461-1.556-1.493h-0.938
				v3.333h-0.99V87.556z M467.178,91.062h1.019c1.061,0,1.734-0.583,1.734-1.461c0-0.993-0.717-1.429-1.77-1.429
				c-0.479,0-0.812,0.036-0.983,0.082V91.062z"/>
		</g>
	</g>
	<path d="M130.114,126.705c0,0-11.102,13.874-44.398,4.057c0,0-0.85,8.75-8.752,10.668C76.963,141.43,112.4,158.722,130.114,126.705
		z"/>
	<path d="M84.009,119.233h18.569c0,0,0.643-8.113-5.337-9.818c0,0-1.918,3.206-3.625,2.773c0,0-1.71-1.494-2.138-2.984
		C91.479,109.205,83.369,109.205,84.009,119.233z"/>
	<path d="M24.458,126.705c0,0,11.1,13.874,44.399,4.057c0,0,0.852,8.75,8.751,10.668C77.607,141.43,42.177,158.722,24.458,126.705z"
		/>
</g>
</svg>
